<svg xmlns="http://www.w3.org/2000/svg" width="256" height="256"><path fill="#1976D2" fill-opacity=".016" fill-rule="evenodd" d="M0 128.004v128.004l128.25-.254 128.25-.254.254-127.75L257.008 0H0v128.004m.485.496c0 70.4.119 99.053.265 63.672.146-35.38.146-92.98 0-128C.604 29.153.485 58.1.485 128.5"/><path fill="#1976D2" fill-opacity=".227" fill-rule="evenodd" d="M224.5 26c-5.479 5.5-10.308 10-10.731 10-.423 0-.769-1.959-.769-4.353v-4.354l-7.651-.646c-4.208-.356-52.133-.647-106.5-.647H0v214h214.207l-.338-80.006-.338-80.007 20.984-21.002L255.5 37.982l.507 100.759.507 100.759.075-107.5c.041-59.125-.187-104.899-.507-101.72l-.582 5.779-9.981-10.029C240.029 20.513 235.296 16 235 16c-.296 0-5.021 4.5-10.5 10M.482 133c0 59.125.121 83.313.268 53.75.147-29.563.147-77.938 0-107.5C.603 49.687.482 73.875.482 133"/><path fill="#1976D2" fill-opacity=".258" fill-rule="evenodd" d="m165.247 85.251-69.236 69.236-16.009-15.985-16.008-15.984-10.743 10.743-10.743 10.742 26.746 26.746L96 197.495l79.995-79.99 79.995-79.991.26 100.993.26 100.993.052-107.5c.029-59.125-.109-104.606-.307-101.069l-.36 6.43-10.706-10.673-10.706-10.673-69.236 69.236M1 133.005v107.004l106.25-.254 106.25-.255.23-68.75c.126-37.812-.107-68.75-.518-68.75-.411 0-5.352 4.62-10.98 10.267L192 122.534V218H22V48h159.536l10.232-10.267c5.628-5.647 10.232-10.597 10.232-11 0-.403-45.225-.733-100.5-.733H1v107.005"/><path fill="#1976D2" fill-opacity=".986" fill-rule="evenodd" d="m165.252 85.246-69.241 69.241-16.009-15.985-16.008-15.984-10.743 10.743-10.743 10.742 26.745 26.745 26.744 26.745 37.567-37.497c20.661-20.623 56.519-56.761 79.683-80.308l42.118-42.812-10.436-10.435-10.436-10.436-69.241 69.241M0 133.5V240h213V101.536L202.5 112 192 122.464V219H21V48h160.536L192 37.5 202.464 27H0v106.5"/></svg>