<?xml version="1.0" encoding="UTF-8" standalone="no"?>
<svg
   version="1.1"
   id="Layer_1"
   x="0px"
   y="0px"
   width="1000"
   height="1000"
   viewBox="0 0 1000 1000"
   enable-background="new 0 0 1160 1160"
   xml:space="preserve"
   xmlns="http://www.w3.org/2000/svg"
   xmlns:svg="http://www.w3.org/2000/svg"><defs
   id="defs15604">


























































































































































































































































































































































































































































	
	

	
	

	
	
</defs>
<path
   id="rect14261"
   style="fill:#000000;stroke-width:0.4"
   d="M 360 0 L 360 40 L 360 80 L 360 120 L 400 120 L 400 80 L 440 80 L 480 80 L 480 120 L 520 120 L 520 80 L 520 40 L 480 40 L 440 40 L 440 0 L 400 0 L 360 0 z M 520 120 L 520 160 L 560 160 L 560 120 L 520 120 z M 560 120 L 600 120 L 640 120 L 640 80 L 600 80 L 560 80 L 560 120 z M 640 80 L 680 80 L 680 40 L 640 40 L 640 80 z M 520 160 L 480 160 L 480 200 L 480 240 L 480 280 L 480 320 L 520 320 L 560 320 L 560 280 L 520 280 L 520 240 L 520 200 L 520 160 z M 560 280 L 600 280 L 600 240 L 560 240 L 560 280 z M 600 240 L 640 240 L 640 280 L 680 280 L 680 240 L 680 200 L 640 200 L 600 200 L 600 240 z M 640 280 L 600 280 L 600 320 L 640 320 L 640 280 z M 600 320 L 560 320 L 560 360 L 600 360 L 600 320 z M 560 360 L 520 360 L 520 400 L 480 400 L 480 360 L 440 360 L 400 360 L 400 400 L 440 400 L 440 440 L 400 440 L 360 440 L 320 440 L 320 480 L 360 480 L 360 520 L 400 520 L 400 480 L 440 480 L 440 520 L 440 560 L 400 560 L 360 560 L 360 520 L 320 520 L 320 480 L 280 480 L 240 480 L 200 480 L 160 480 L 160 440 L 200 440 L 200 400 L 200 360 L 160 360 L 160 320 L 120 320 L 120 360 L 80 360 L 80 400 L 120 400 L 120 440 L 120 480 L 80 480 L 80 520 L 80 560 L 80 600 L 40 600 L 40 640 L 0 640 L 0 680 L 40 680 L 80 680 L 120 680 L 120 640 L 120 600 L 120 560 L 120 520 L 160 520 L 200 520 L 200 560 L 240 560 L 240 520 L 280 520 L 280 560 L 320 560 L 320 600 L 280 600 L 280 640 L 240 640 L 240 680 L 280 680 L 320 680 L 320 720 L 360 720 L 360 680 L 400 680 L 400 640 L 360 640 L 360 600 L 400 600 L 440 600 L 440 640 L 480 640 L 480 600 L 480 560 L 480 520 L 480 480 L 480 440 L 520 440 L 520 480 L 560 480 L 560 440 L 600 440 L 600 400 L 560 400 L 560 360 z M 600 440 L 600 480 L 640 480 L 640 520 L 680 520 L 680 480 L 720 480 L 720 520 L 680 520 L 680 560 L 720 560 L 760 560 L 760 600 L 800 600 L 800 640 L 760 640 L 720 640 L 680 640 L 680 600 L 680 560 L 640 560 L 640 600 L 640 640 L 600 640 L 600 680 L 560 680 L 560 640 L 520 640 L 480 640 L 480 680 L 480 720 L 440 720 L 440 760 L 480 760 L 480 800 L 520 800 L 520 760 L 520 720 L 560 720 L 560 760 L 560 800 L 600 800 L 640 800 L 640 840 L 680 840 L 720 840 L 760 840 L 760 880 L 760 920 L 800 920 L 840 920 L 840 880 L 880 880 L 880 920 L 920 920 L 920 880 L 920 840 L 880 840 L 880 800 L 920 800 L 920 840 L 960 840 L 1000 840 L 1000 800 L 960 800 L 960 760 L 1000 760 L 1000 720 L 1000 680 L 960 680 L 960 720 L 920 720 L 920 760 L 880 760 L 880 720 L 880 680 L 920 680 L 920 640 L 880 640 L 840 640 L 840 600 L 840 560 L 800 560 L 800 520 L 760 520 L 760 480 L 760 440 L 720 440 L 680 440 L 680 400 L 720 400 L 760 400 L 760 360 L 720 360 L 720 320 L 680 320 L 680 360 L 640 360 L 640 400 L 640 440 L 600 440 z M 760 360 L 800 360 L 800 320 L 760 320 L 760 360 z M 760 400 L 760 440 L 800 440 L 800 480 L 840 480 L 840 440 L 840 400 L 800 400 L 760 400 z M 840 480 L 840 520 L 840 560 L 880 560 L 880 600 L 920 600 L 920 560 L 920 520 L 880 520 L 880 480 L 840 480 z M 920 520 L 960 520 L 960 560 L 960 600 L 1000 600 L 1000 560 L 1000 520 L 1000 480 L 960 480 L 920 480 L 920 520 z M 960 600 L 920 600 L 920 640 L 960 640 L 960 600 z M 880 920 L 840 920 L 840 960 L 880 960 L 880 920 z M 640 840 L 600 840 L 560 840 L 560 880 L 600 880 L 600 920 L 560 920 L 560 960 L 600 960 L 600 1000 L 640 1000 L 680 1000 L 720 1000 L 720 960 L 720 920 L 680 920 L 680 880 L 640 880 L 640 840 z M 440 760 L 400 760 L 400 800 L 440 800 L 440 760 z M 400 760 L 400 720 L 360 720 L 360 760 L 400 760 z M 360 760 L 320 760 L 320 800 L 360 800 L 360 760 z M 600 480 L 560 480 L 560 520 L 520 520 L 520 560 L 520 600 L 560 600 L 600 600 L 600 560 L 600 520 L 600 480 z M 240 640 L 240 600 L 200 600 L 200 640 L 240 640 z M 200 640 L 160 640 L 160 680 L 200 680 L 200 640 z M 240 600 L 280 600 L 280 560 L 240 560 L 240 600 z M 40 600 L 40 560 L 0 560 L 0 600 L 40 600 z M 80 480 L 80 440 L 40 440 L 40 480 L 80 480 z M 40 480 L 0 480 L 0 520 L 40 520 L 40 480 z M 200 360 L 240 360 L 280 360 L 280 320 L 240 320 L 200 320 L 200 360 z M 280 360 L 280 400 L 320 400 L 320 360 L 280 360 z M 320 360 L 360 360 L 360 320 L 320 320 L 320 360 z M 360 320 L 400 320 L 400 280 L 360 280 L 360 320 z M 360 280 L 360 240 L 400 240 L 400 280 L 440 280 L 440 240 L 440 200 L 440 160 L 480 160 L 480 120 L 440 120 L 400 120 L 400 160 L 400 200 L 360 200 L 320 200 L 320 240 L 320 280 L 360 280 z M 280 400 L 240 400 L 240 440 L 280 440 L 280 400 z M 560 0 L 560 40 L 600 40 L 600 0 L 560 0 z M 0 320 L 0 360 L 40 360 L 40 320 L 0 320 z M 960 360 L 960 400 L 920 400 L 920 440 L 960 440 L 1000 440 L 1000 400 L 1000 360 L 960 360 z M 680 680 L 720 680 L 760 680 L 800 680 L 800 720 L 800 760 L 800 800 L 760 800 L 720 800 L 680 800 L 680 760 L 680 720 L 680 680 z M 720 720 L 720 760 L 760 760 L 760 720 L 720 720 z M 320 840 L 320 880 L 360 880 L 360 920 L 360 960 L 320 960 L 320 1000 L 360 1000 L 400 1000 L 440 1000 L 440 960 L 440 920 L 400 920 L 400 880 L 400 840 L 360 840 L 320 840 z M 440 840 L 440 880 L 480 880 L 480 840 L 440 840 z M 960 880 L 960 920 L 1000 920 L 1000 880 L 960 880 z M 480 960 L 480 1000 L 520 1000 L 520 960 L 480 960 z M 760 960 L 760 1000 L 800 1000 L 800 960 L 760 960 z M 920 960 L 920 1000 L 960 1000 L 1000 1000 L 1000 960 L 960 960 L 920 960 z " /><rect
   x="42"
   y="42"
   style="fill:none;stroke-width:2.8"
   width="196"
   height="196"
   id="rect15551" /><path
   d="M 238,0 H 42 0 v 42 196 42 h 42 196 42 V 238 42 0 Z m 0,238 H 42 V 42 h 196 z"
   id="path15553"
   style="fill:#000000;stroke-width:2.8" /><rect
   x="762"
   y="42"
   style="fill:none;stroke-width:2.8"
   width="196"
   height="196"
   id="rect15561" /><path
   id="path15563"
   style="fill:#000000;stroke-width:2.8"
   d="m 720,0 v 42 196 42 h 42 196 42 V 238 42 0 H 958 762 Z m 42,42 H 958 V 238 H 762 Z m 38,38 V 200 H 920 V 80 Z" /><rect
   x="42"
   y="762"
   style="fill:none;stroke-width:2.8"
   width="196"
   height="196"
   id="rect15571" /><path
   d="M 238,720 H 42 0 v 42 196 42 h 42 196 42 V 958 762 720 Z m 0,238 H 42 V 762 h 196 z"
   id="path15573"
   style="fill:#000000;stroke-width:2.8" /><rect
   width="120"
   height="120"
   id="rect15581"
   x="80"
   y="80"
   style="fill:#000000;stroke-width:1.2" /><rect
   width="120"
   height="120"
   id="rect15593"
   x="80"
   y="800"
   style="fill:#000000;stroke-width:1.2" /></svg>
